<svg width="16" height="14" viewBox="0 0 16 14" fill="none" xmlns="http://www.w3.org/2000/svg">
<path d="M7.98835 0.692306C8.51992 0.692306 9.02972 0.903473 9.4056 1.27935C9.78148 1.65523 9.99265 2.16503 9.99265 2.69661C9.99265 3.22818 9.78148 3.73798 9.4056 4.11386C9.02972 4.48974 8.51992 4.70091 7.98835 4.70091C7.45666 4.70091 6.94674 4.48969 6.57078 4.11373C6.19481 3.73776 5.9836 3.22785 5.9836 2.69616C5.9836 2.16446 6.19481 1.65455 6.57078 1.27858C6.94674 0.90262 7.45666 0.692306 7.98835 0.692306ZM7.98835 1.59231C7.69547 1.59231 7.41459 1.70865 7.20749 1.91575C7.00039 2.12284 6.88405 2.40373 6.88405 2.69661C6.88405 2.98948 7.00039 3.27037 7.20749 3.47746C7.41459 3.68456 7.69547 3.80091 7.98835 3.80091C8.28135 3.80091 8.56234 3.68451 8.76953 3.47733C8.97671 3.27015 9.0931 2.98915 9.0931 2.69616C9.0931 2.40316 8.97671 2.12216 8.76953 1.91498C8.56234 1.7078 8.28135 1.59231 7.98835 1.59231ZM1.71445 8.35131C1.71445 8.47065 1.66704 8.58511 1.58265 8.6695C1.49826 8.7539 1.3838 8.80131 1.26445 8.80131C1.1451 8.80131 1.03064 8.7539 0.946251 8.6695C0.861859 8.58511 0.814449 8.47065 0.814449 8.35131V6.11391C0.814478 5.89347 0.895409 5.6807 1.04189 5.51597C1.18838 5.35124 1.39022 5.246 1.60915 5.22021L1.71445 5.21391H4.19575C4.0648 5.43987 3.98492 5.69177 3.96175 5.95191L3.95455 6.11391H1.71355L1.71445 8.35131ZM14.741 8.80131C14.8604 8.80131 14.9749 8.7539 15.0592 8.6695C15.1436 8.58511 15.191 8.47065 15.191 8.35131V6.11391L15.1847 6.00951C15.1592 5.79042 15.054 5.58835 14.8893 5.44169C14.7245 5.29502 14.5116 5.21396 14.291 5.21391H11.7854C11.9168 5.44161 12.0014 5.70261 12.0212 5.97981L12.0257 6.11481H14.291V8.35131C14.291 8.47065 14.3385 8.58511 14.4228 8.6695C14.5072 8.7539 14.6217 8.80131 14.741 8.80131ZM10.2266 5.21391C10.4472 5.21396 10.6601 5.29502 10.8249 5.44169C10.9896 5.58835 11.0948 5.79042 11.1203 6.00951L11.1257 6.11391V8.35131C11.1257 8.47065 11.0783 8.58511 10.9939 8.6695C10.9096 8.7539 10.7951 8.80131 10.6757 8.80131C10.5564 8.80131 10.4419 8.7539 10.3576 8.6695C10.2732 8.58511 10.2257 8.47065 10.2257 8.35131V6.11391H5.75455V8.35131C5.75455 8.47065 5.70714 8.58511 5.62275 8.6695C5.53836 8.7539 5.4239 8.80131 5.30455 8.80131C5.1852 8.80131 5.07074 8.7539 4.98635 8.6695C4.90196 8.58511 4.85455 8.47065 4.85455 8.35131V6.11391C4.85458 5.89347 4.93551 5.6807 5.08199 5.51597C5.22848 5.35124 5.43032 5.246 5.64925 5.22021L5.75455 5.21391H10.2257H10.2266ZM14.1992 2.97921C14.1992 2.52246 14.0178 2.08443 13.6948 1.76146C13.3719 1.4385 12.9338 1.25706 12.4771 1.25706C12.0204 1.25706 11.5823 1.4385 11.2594 1.76146C10.9364 2.08443 10.7549 2.52246 10.7549 2.97921C10.7549 3.43595 10.9364 3.87398 11.2594 4.19695C11.5823 4.51992 12.0204 4.70136 12.4771 4.70136C12.9338 4.70136 13.3719 4.51992 13.6948 4.19695C14.0178 3.87398 14.1992 3.43595 14.1992 2.97921ZM11.6549 2.97921C11.6549 2.76116 11.7416 2.55204 11.8958 2.39786C12.0499 2.24368 12.2591 2.15706 12.4771 2.15706C12.6951 2.15706 12.9043 2.24368 13.0584 2.39786C13.2126 2.55204 13.2992 2.76116 13.2992 2.97921C13.2992 3.19725 13.2126 3.40637 13.0584 3.56055C12.9043 3.71474 12.6951 3.80136 12.4771 3.80136C12.2591 3.80136 12.0499 3.71474 11.8958 3.56055C11.7416 3.40637 11.6549 3.19725 11.6549 2.97921ZM3.51445 1.25661C3.97119 1.25661 4.40923 1.43805 4.73219 1.76101C5.05516 2.08398 5.2366 2.52201 5.2366 2.97876C5.2366 3.4355 5.05516 3.87353 4.73219 4.1965C4.40923 4.51947 3.97119 4.70091 3.51445 4.70091C3.05771 4.70091 2.61967 4.51947 2.2967 4.1965C1.97374 3.87353 1.7923 3.4355 1.7923 2.97876C1.7923 2.52201 1.97374 2.08398 2.2967 1.76101C2.61967 1.43805 3.05771 1.25661 3.51445 1.25661ZM3.51445 2.15661C3.2964 2.15661 3.08728 2.24323 2.9331 2.39741C2.77892 2.55159 2.6923 2.76071 2.6923 2.97876C2.6923 3.1968 2.77892 3.40592 2.9331 3.5601C3.08728 3.71429 3.2964 3.80091 3.51445 3.80091C3.7325 3.80091 3.94161 3.71429 4.0958 3.5601C4.24998 3.40592 4.3366 3.1968 4.3366 2.97876C4.3366 2.76071 4.24998 2.55159 4.0958 2.39741C3.94161 2.24323 3.7325 2.15661 3.51445 2.15661ZM1.25005 9.70131C1.1307 9.70131 1.01624 9.74872 0.931851 9.83311C0.847459 9.9175 0.800049 10.032 0.800049 10.1513V11.0513C0.800049 11.648 1.0371 12.2203 1.45906 12.6423C1.88102 13.0643 2.45331 13.3013 3.05005 13.3013H12.95C13.5468 13.3013 14.1191 13.0643 14.541 12.6423C14.963 12.2203 15.2 11.648 15.2 11.0513V10.1513C15.2 10.032 15.1526 9.9175 15.0682 9.83311C14.9839 9.74872 14.8694 9.70131 14.75 9.70131H1.25005ZM1.70005 11.0513V10.6013H14.3V11.0513C14.3 11.4093 14.1578 11.7527 13.9046 12.0059C13.6515 12.2591 13.3081 12.4013 12.95 12.4013H3.05005C2.69201 12.4013 2.34863 12.2591 2.09545 12.0059C1.84228 11.7527 1.70005 11.4093 1.70005 11.0513Z" fill="#535559"/>
</svg>
