<svg width="16" height="12" viewBox="0 0 16 12" fill="none" xmlns="http://www.w3.org/2000/svg">
<path d="M12.5 5.25V6.75H15.5V5.25H12.5ZM11 10.2075C11.72 10.74 12.6575 11.445 13.4 12C13.7 11.6025 14 11.1975 14.3 10.8C13.5575 10.245 12.62 9.54 11.9 9C11.6 9.405 11.3 9.81 11 10.2075ZM14.3 1.2C14 0.8025 13.7 0.3975 13.4 0C12.6575 0.555 11.72 1.26 11 1.8C11.3 2.1975 11.6 2.6025 11.9 3C12.62 2.46 13.5575 1.7625 14.3 1.2ZM2 3.75C1.175 3.75 0.5 4.425 0.5 5.25V6.75C0.5 7.575 1.175 8.25 2 8.25H2.75V11.25H4.25V8.25H5L8.75 10.5V1.5L5 3.75H2ZM5.7725 5.0325L7.25 4.1475V7.8525L5.7725 6.9675L5.4125 6.75H2V5.25H5.4125L5.7725 5.0325ZM10.625 6C10.625 5.0025 10.19 4.1025 9.5 3.4875V8.505C10.19 7.8975 10.625 6.9975 10.625 6Z" fill="#535559"/>
</svg>
