<svg width="16" height="16" viewBox="0 0 16 16" fill="none" xmlns="http://www.w3.org/2000/svg">
<path d="M0.5 2.9375C0.5 2.29103 0.756807 1.67105 1.21393 1.21393C1.67105 0.756807 2.29103 0.5 2.9375 0.5H10.8125C11.459 0.5 12.079 0.756807 12.5361 1.21393C12.9932 1.67105 13.25 2.29103 13.25 2.9375V6.50525C13.1876 6.50169 13.125 6.49994 13.0625 6.5H12.125V2.9375C12.125 2.5894 11.9867 2.25556 11.7406 2.00942C11.4944 1.76328 11.1606 1.625 10.8125 1.625H2.9375C2.5894 1.625 2.25556 1.76328 2.00942 2.00942C1.76328 2.25556 1.625 2.5894 1.625 2.9375V11.5625C1.625 12.287 2.213 12.875 2.9375 12.875H3.5V13.0625C3.5 13.3888 3.54875 13.7037 3.64025 14H2.9375C2.29103 14 1.67105 13.7432 1.21393 13.2861C0.756807 12.829 0.5 12.209 0.5 11.5625V2.9375ZM4.0625 2.75C3.91332 2.75 3.77024 2.80926 3.66475 2.91475C3.55926 3.02024 3.5 3.16332 3.5 3.3125C3.5 3.46168 3.55926 3.60476 3.66475 3.71025C3.77024 3.81574 3.91332 3.875 4.0625 3.875H9.6875C9.83668 3.875 9.97976 3.81574 10.0852 3.71025C10.1907 3.60476 10.25 3.46168 10.25 3.3125C10.25 3.16332 10.1907 3.02024 10.0852 2.91475C9.97976 2.80926 9.83668 2.75 9.6875 2.75H4.0625ZM5 5.1875C5 5.03832 5.05926 4.89524 5.16475 4.78975C5.27024 4.68426 5.41332 4.625 5.5625 4.625H9.6875C9.83668 4.625 9.97976 4.68426 10.0852 4.78975C10.1907 4.89524 10.25 5.03832 10.25 5.1875C10.25 5.33668 10.1907 5.47976 10.0852 5.58525C9.97976 5.69074 9.83668 5.75 9.6875 5.75H5.5625C5.41332 5.75 5.27024 5.69074 5.16475 5.58525C5.05926 5.47976 5 5.33668 5 5.1875ZM4.25 9.6875C4.25 9.04103 4.50681 8.42105 4.96393 7.96393C5.42105 7.50681 6.04103 7.25 6.6875 7.25H13.0625C13.3826 7.25 13.6996 7.31305 13.9953 7.43554C14.291 7.55804 14.5597 7.73758 14.7861 7.96393C15.0124 8.19027 15.192 8.45898 15.3145 8.75471C15.437 9.05044 15.5 9.3674 15.5 9.6875V13.0625C15.5 13.3826 15.437 13.6996 15.3145 13.9953C15.192 14.291 15.0124 14.5597 14.7861 14.7861C14.5597 15.0124 14.291 15.192 13.9953 15.3145C13.6996 15.437 13.3826 15.5 13.0625 15.5H6.6875C6.3674 15.5 6.05044 15.437 5.75471 15.3145C5.45898 15.192 5.19027 15.0124 4.96393 14.7861C4.73758 14.5597 4.55804 14.291 4.43554 13.9953C4.31305 13.6996 4.25 13.3826 4.25 13.0625V9.6875ZM6.6875 8.375C6.3095 8.375 5.96825 8.53475 5.729 8.79125L9.875 11.456L14.021 8.79125C13.8984 8.65975 13.75 8.55493 13.5851 8.48331C13.4202 8.41169 13.2423 8.37482 13.0625 8.375H6.6875ZM5.375 13.0625C5.375 13.787 5.963 14.375 6.6875 14.375H13.0625C13.4106 14.375 13.7444 14.2367 13.9906 13.9906C14.2367 13.7444 14.375 13.4106 14.375 13.0625V9.9005L10.1795 12.5983C10.0887 12.6567 9.98299 12.6878 9.875 12.6878C9.76701 12.6878 9.6613 12.6567 9.5705 12.5983L5.375 9.9005V13.0625Z" fill="#535559"/>
</svg>
